<?xml version="1.0" encoding="UTF-8"?>
<svg width="512px" height="512px" viewBox="0 0 512 512" version="1.1" xmlns="http://www.w3.org/2000/svg" xmlns:xlink="http://www.w3.org/1999/xlink">
    <!-- Generator: Sketch 57.1 (83088) - https://sketch.com -->
    <title>Wear Offline Notes - Logo</title>
    <desc>Created with Sketch.</desc>
    <defs>
        <path d="M49.2307692,0 L344.615385,0 C371.804788,0 393.846154,22.0413662 393.846154,49.2307692 L393.846154,344.615385 C393.846154,371.804788 371.804788,393.846154 344.615385,393.846154 L49.2307692,393.846154 C22.0413662,393.846154 0,371.804788 0,344.615385 L0,49.2307692 C0,22.0413662 22.0413662,0 49.2307692,0 Z" id="path-1"></path>
        <filter x="-1.8%" y="-1.8%" width="103.6%" height="103.6%" filterUnits="objectBoundingBox" id="filter-3">
            <feGaussianBlur stdDeviation="7" in="SourceAlpha" result="shadowBlurInner1"></feGaussianBlur>
            <feOffset dx="0" dy="0" in="shadowBlurInner1" result="shadowOffsetInner1"></feOffset>
            <feComposite in="shadowOffsetInner1" in2="SourceAlpha" operator="arithmetic" k2="-1" k3="1" result="shadowInnerInner1"></feComposite>
            <feColorMatrix values="0 0 0 0 0   0 0 0 0 0   0 0 0 0 0  0 0 0 0.2 0" type="matrix" in="shadowInnerInner1"></feColorMatrix>
        </filter>
        <path d="M49.2307692,0 L344.615385,0 C371.804788,0 393.846154,22.0413662 393.846154,49.2307692 L393.846154,83.6923077 L0,83.6923077 L0,49.2307692 C0,22.0413662 22.0413662,0 49.2307692,0 Z" id="path-4"></path>
        <filter x="-3.3%" y="-15.5%" width="106.6%" height="131.1%" filterUnits="objectBoundingBox" id="filter-5">
            <feGaussianBlur stdDeviation="11" in="SourceAlpha" result="shadowBlurInner1"></feGaussianBlur>
            <feOffset dx="0" dy="-4" in="shadowBlurInner1" result="shadowOffsetInner1"></feOffset>
            <feComposite in="shadowOffsetInner1" in2="SourceAlpha" operator="arithmetic" k2="-1" k3="1" result="shadowInnerInner1"></feComposite>
            <feColorMatrix values="0 0 0 0 0   0 0 0 0 0.162441029   0 0 0 0 0.416723279  0 0 0 0.5 0" type="matrix" in="shadowInnerInner1"></feColorMatrix>
        </filter>
    </defs>
    <g id="Wear-Offline-Notes---Logo" stroke="none" stroke-width="1" fill="none" fill-rule="evenodd">
        <g id="Group" transform="translate(49.777778, 0.000000)">
            <path d="M349.538462,452.923077 L336.050651,492.081238 C331.9453,503.999998 320.728472,512 308.122491,512 L85.7236628,512 C73.1176818,512 61.9008541,503.999998 57.7955033,492.081238 L44.3076923,452.923077 L349.538462,452.923077 Z M403.692308,241.230769 C411.849129,241.230769 418.461538,247.843179 418.461538,256 L418.461538,324.923077 C418.461538,333.079898 411.849129,339.692308 403.692308,339.692308 L393.846154,339.692308 L393.846154,241.230769 L403.692308,241.230769 Z M85.8796468,-4.97379915e-14 L307.966507,-4.97379915e-14 C320.507421,-4.97379915e-14 331.664395,7.91611239 335.823619,19.7148427 L335.961159,20.1140175 L349.538462,60.4444444 L44.3076923,60.4444444 L57.8849944,20.1140175 C61.886257,8.22854656 72.9483461,0.180373378 85.4574515,0.00299242735 L85.8796468,-4.97379915e-14 L307.966507,-4.97379915e-14 Z" id="Watch" fill="#53525C"></path>
            <g id="Document" transform="translate(0.000000, 59.076923)">
                <mask id="mask-2" fill="white">
                    <use xlink:href="#path-1"></use>
                </mask>
                <g id="Rectangle">
                    <use fill="#F5F5F5" fill-rule="evenodd" xlink:href="#path-1"></use>
                    <use fill="black" fill-opacity="1" filter="url(#filter-3)" xlink:href="#path-1"></use>
                </g>
                <g id="Rectangle" mask="url(#mask-2)">
                    <use fill="#3477C5" fill-rule="evenodd" xlink:href="#path-4"></use>
                    <use fill="black" fill-opacity="1" filter="url(#filter-5)" xlink:href="#path-4"></use>
                </g>
                <path d="M258.461538,320 C267.97783,320 275.692308,327.714478 275.692308,337.230769 C275.692308,346.74706 267.97783,354.461538 258.461538,354.461538 L56.6153846,354.461538 C47.0990935,354.461538 39.3846154,346.74706 39.3846154,337.230769 C39.3846154,327.714478 47.0990935,320 56.6153846,320 L258.461538,320 Z M337.230769,251.076923 C346.74706,251.076923 354.461538,258.791401 354.461538,268.307692 C354.461538,277.823983 346.74706,285.538462 337.230769,285.538462 L56.6153846,285.538462 C47.0990935,285.538462 39.3846154,277.823983 39.3846154,268.307692 C39.3846154,258.791401 47.0990935,251.076923 56.6153846,251.076923 L337.230769,251.076923 Z M337.230769,182.153846 C346.74706,182.153846 354.461538,189.868324 354.461538,199.384615 C354.461538,208.900906 346.74706,216.615385 337.230769,216.615385 L56.6153846,216.615385 C47.0990935,216.615385 39.3846154,208.900906 39.3846154,199.384615 C39.3846154,189.868324 47.0990935,182.153846 56.6153846,182.153846 L337.230769,182.153846 Z M337.230769,113.230769 C346.74706,113.230769 354.461538,120.945247 354.461538,130.461538 C354.461538,139.97783 346.74706,147.692308 337.230769,147.692308 L56.6153846,147.692308 C47.0990935,147.692308 39.3846154,139.97783 39.3846154,130.461538 C39.3846154,120.945247 47.0990935,113.230769 56.6153846,113.230769 L337.230769,113.230769 Z" id="Combined-Shape" fill="#D8D8D8" mask="url(#mask-2)"></path>
                <g id="Cloud" mask="url(#mask-2)" fill-rule="nonzero">
                    <g transform="translate(54.153846, 107.940171)" id="Path">
                        <path d="M158.688067,18.8753293 C134.299241,18.8753293 112.094511,31.4021021 99.1600453,51.3844389 C71.7869913,52.3936779 48.9866447,71.4209639 41.8900928,96.9848263 C18.0145865,104.098494 0.616926933,126.46442 0.616926933,152.792414 C0.616926933,184.80531 26.3393073,210.949361 58.1534871,210.949361 L213.844052,210.949361 C253.296099,210.949361 285.229998,178.491965 285.229998,138.715994 C285.229998,103.152491 259.677128,73.4324233 226.061951,67.5509914 C216.500486,39.0420832 189.929027,18.8753293 158.688067,18.8753293 Z" fill="#265FA0"></path>
                        <path d="M213.844052,86.1866256 C242.336518,86.1866256 265.53769,109.756447 265.53769,138.715994 C265.53769,167.687232 242.348021,191.257053 213.844052,191.257053 L58.1534871,191.257053 C37.2873856,191.257053 20.3092346,174.000577 20.3092346,152.792414 C20.3092346,131.584252 37.2873856,114.316085 58.1534871,114.316085 L59.2922656,114.316085 L59.2922656,113.871812 C59.2922656,90.2552257 78.202889,71.0345978 101.450073,71.0345978 C104.567335,71.0345978 107.661591,71.3853392 110.652323,72.0634392 C118.267184,51.9308838 137.292836,38.567637 158.688067,38.567637 C185.673664,38.567637 207.70155,59.3432184 209.967604,86.3386135 C211.244416,86.2333911 212.544234,86.1866256 213.844052,86.1866256 Z" fill="#3C80D1"></path>
                        <path d="M153.276889,-18.8889573 C166.203781,-18.8889573 176.683097,-8.40964111 176.683097,4.51725053 L176.683097,249.188482 C176.683097,262.115374 166.203781,272.59469 153.276889,272.59469 C140.349998,272.59469 129.870682,262.115374 129.870682,249.188482 L129.870682,4.51725053 C129.870682,-8.40964111 140.349998,-18.8889573 153.276889,-18.8889573 Z" fill="#F5F5F5" transform="translate(153.276889, 126.852866) rotate(40.000000) translate(-153.276889, -126.852866) "></path>
                        <path d="M153.276889,-4.11972653 C148.506819,-4.11972653 144.639912,-0.252820185 144.639912,4.51725053 L144.639912,249.188482 C144.639912,253.958553 148.506819,257.825459 153.276889,257.825459 C158.04696,257.825459 161.913867,253.958553 161.913867,249.188482 L161.913867,4.51725053 C161.913867,-0.252820185 158.04696,-4.11972653 153.276889,-4.11972653 Z" fill="#265FA0" transform="translate(153.276889, 126.852866) rotate(40.000000) translate(-153.276889, -126.852866) "></path>
                    </g>
                </g>
                <polygon id="shadow" fill-opacity="0.4" fill="#F5F5F5" style="mix-blend-mode: multiply;" mask="url(#mask-2)" points="393.846154 0 393.846154 393.846154 0 393.846154"></polygon>
            </g>
        </g>
    </g>
</svg>